<?xml version="1.0" encoding="iso-8859-1"?>
<!-- Generator: Adobe Illustrator 19.0.0, SVG Export Plug-In . SVG Version: 6.00 Build 0)  -->
<svg version="1.1" id="Capa_1" xmlns="http://www.w3.org/2000/svg" xmlns:xlink="http://www.w3.org/1999/xlink" x="0px" y="0px"
	 viewBox="0 0 433.633 433.633" style="enable-background:new 0 0 433.633 433.633;" xml:space="preserve">
<g>
	<g>
		<g>
			<path d="M378.77,407.51V20.898C378.77,7.837,367.798,0,354.737,0H78.362c-12.539,0-23.51,7.837-23.51,20.898V407.51
				c0,13.061,10.971,26.122,23.51,26.122H355.26c6.642-0.337,12.863-3.353,17.241-8.359
				C376.727,420.338,378.962,414.005,378.77,407.51z M245.545,397.061h-57.469c-4.328,0-7.837-3.509-7.837-7.837
				s3.509-7.837,7.837-7.837h57.469c4.328,0,7.837,3.509,7.837,7.837S249.873,397.061,245.545,397.061z M347.423,347.429
				c0,4.328-3.509,7.837-7.837,7.837H94.035c-4.328,0-7.837-3.509-7.837-7.837V33.959c0-4.328,3.509-7.837,7.837-7.837h245.551
				c4.328,0,7.837,3.509,7.837,7.837V347.429z"/>
			<path d="M101.872,339.592h229.878V41.796H101.872V339.592z M152.027,109.714H218.9c4.328,0,7.837,3.509,7.837,7.837
				c0,4.328-3.509,7.837-7.837,7.837h-66.873c-4.328,0-7.837-3.509-7.837-7.837C144.19,113.223,147.699,109.714,152.027,109.714z
				 M152.027,177.633h129.567c4.328,0,7.837,3.509,7.837,7.837c0,4.328-3.509,7.837-7.837,7.837H152.027
				c-4.328,0-7.837-3.509-7.837-7.837C144.19,181.141,147.699,177.633,152.027,177.633z M152.027,245.551h129.567
				c4.328,0,7.837,3.509,7.837,7.837c0,4.328-3.509,7.837-7.837,7.837H152.027c-4.328,0-7.837-3.509-7.837-7.837
				C144.19,249.06,147.699,245.551,152.027,245.551z"/>
		</g>
	</g>
</g>
<g>
</g>
<g>
</g>
<g>
</g>
<g>
</g>
<g>
</g>
<g>
</g>
<g>
</g>
<g>
</g>
<g>
</g>
<g>
</g>
<g>
</g>
<g>
</g>
<g>
</g>
<g>
</g>
<g>
</g>
</svg>
