<svg id="_x31_px" enable-background="new 0 0 24 24" height="512" viewBox="0 0 24 24" width="512" xmlns="http://www.w3.org/2000/svg"><path d="m5.099 19c-.226 0-.425-.152-.483-.373-2.352-8.939 2.039-15.198 13.049-18.605.128-.038.269-.026.387.038.119.064.206.174.243.304.688 2.444.875 4.785.553 6.959-.021.14-.099.264-.216.342l-4.146 2.777 2.385 1.223c.124.063.216.176.253.31.038.135.018.278-.055.396-2.396 3.916-6.748 6.332-11.941 6.628-.01.001-.02.001-.029.001zm12.366-17.865c-10.016 3.234-13.941 8.749-11.984 16.838 4.475-.361 8.234-2.404 10.442-5.669l-2.65-1.358c-.158-.081-.261-.239-.271-.416s.074-.346.221-.444l4.666-3.126c.237-1.825.095-3.781-.424-5.825zm.888 6.115h.01z"/><path d="m5.5 24c-.199 0-.386-.119-.464-.314-.103-.257.023-.548.279-.65l4.575-1.823c.868-.347 1.894-.257 2.694.239l2.125 1.323c.463.288 1.08.297 1.548.021l2.48-1.453c1.056-.618 2.528-.323 3.264.66l.899 1.197c.166.221.121.534-.1.7-.223.164-.535.12-.7-.101l-.899-1.198c-.446-.597-1.32-.772-1.958-.396l-2.48 1.453c-.784.458-1.81.445-2.582-.034l-2.125-1.323c-.533-.333-1.218-.389-1.795-.16l-4.575 1.824c-.061.023-.124.035-.186.035z"/><path d="m1.5 24c-.105 0-.21-.032-.3-.1-.221-.166-.266-.479-.1-.7l9-12c.166-.221.479-.266.7-.101.221.166.266.479.1.7l-9 12c-.098.132-.248.201-.4.201z"/></svg>